<?xml version="1.0" encoding="utf-8"?>
<!-- Generator: Adobe Illustrator 23.0.3, SVG Export Plug-In . SVG Version: 6.00 Build 0)  -->
<svg version="1.1" xmlns="http://www.w3.org/2000/svg" xmlns:xlink="http://www.w3.org/1999/xlink" x="0px" y="0px"
	 viewBox="0 0 700.2 120.3" style="enable-background:new 0 0 700.2 120.3;" xml:space="preserve">
<style type="text/css">
	.stx{fill:#FFFFFF;}
	.st0{fill:#E3007F; }
	.st1{fill:#009EE0;}
	.st2{fill:#F18C00;}
.st0 {-webkit-animation: colorspin0 20s infinite alternate;}
.st1 {-webkit-animation: colorspin1 19s infinite alternate;}
.st2 {-webkit-animation: colorspin2 18s infinite alternate;}
@-webkit-keyframes colorspin0 {
  0% {fill: #E3007F}
  40% {fill: #000000;}
  80% {fill: #F18C00;}
}
@-webkit-keyframes colorspin1 {
  0% {fill: #009EE0}
  40% {fill: #000000;}
  80% {fill: #E3007F;}
}
@-webkit-keyframes colorspin2 {
  0% {fill: #F18C00}
  40% {fill: #FFFFFF;}
  80% {fill: #009EE0;}
}
</style>
<g id="Ebene_2">
	<g>
		<path class="stx" d="M161.1,110.7v-3.2h8.4V80.4h-8.4v-3.2h20.7v3.2h-8.4v27.1h8.4v3.2H161.1z"/>
		<path class="stx" d="M190.6,110.7V86h3.8v4h0.2c0.3-0.6,0.6-1.2,1-1.8c0.4-0.6,0.9-1,1.4-1.5c0.6-0.4,1.2-0.8,2-1
			c0.8-0.3,1.7-0.4,2.7-0.4c2.6,0,4.7,0.8,6.2,2.5c1.6,1.6,2.4,4,2.4,7v15.9h-3.8V95.5c0-2.3-0.5-4-1.5-5.1c-1-1.1-2.4-1.7-4.4-1.7
			c-0.8,0-1.5,0.1-2.3,0.3c-0.7,0.2-1.4,0.5-2,0.9c-0.6,0.4-1,0.9-1.4,1.5c-0.4,0.6-0.5,1.3-0.5,2.1v17.2H190.6z"/>
		<path class="stx" d="M226.6,110.7L217.7,86h3.9l3.6,10.4l3.8,11.2h0.2l3.8-11.2l3.6-10.4h3.8l-8.9,24.8H226.6z"/>
		<path class="stx" d="M258.3,111.3c-1.8,0-3.4-0.3-4.8-0.9s-2.6-1.5-3.6-2.6c-1-1.1-1.8-2.5-2.3-4.1c-0.5-1.6-0.8-3.4-0.8-5.3
			c0-2,0.3-3.8,0.8-5.4c0.6-1.6,1.3-3,2.3-4.1s2.2-2,3.6-2.6c1.4-0.6,2.9-0.9,4.6-0.9c1.7,0,3.2,0.3,4.5,0.9
			c1.4,0.6,2.5,1.4,3.5,2.5c1,1.1,1.7,2.3,2.2,3.8c0.5,1.5,0.8,3.1,0.8,4.8v1.8h-18.3v1.2c0,1.1,0.2,2.1,0.5,3
			c0.4,0.9,0.9,1.7,1.5,2.4c0.7,0.7,1.5,1.2,2.4,1.6c0.9,0.4,2,0.6,3.1,0.6c1.7,0,3.1-0.4,4.3-1.2c1.2-0.8,2.1-1.8,2.8-3.2l2.8,1.9
			c-0.7,1.7-2,3-3.7,4.1C262.9,110.8,260.8,111.3,258.3,111.3z M258.1,88.5c-1.1,0-2,0.2-2.9,0.6c-0.9,0.4-1.7,0.9-2.3,1.6
			c-0.7,0.7-1.2,1.5-1.5,2.4s-0.6,1.9-0.6,3v0.3h14.2v-0.5c0-1.1-0.2-2.1-0.5-3c-0.3-0.9-0.8-1.7-1.4-2.3c-0.6-0.7-1.3-1.2-2.2-1.5
			C260,88.7,259.1,88.5,258.1,88.5z"/>
		<path class="stx" d="M276,107.4h7.2V89.3H276V86h11.1v6.2h0.2c0.5-2,1.5-3.5,2.9-4.6c1.4-1.1,3.2-1.7,5.4-1.7h3.5v3.8h-4.7
			c-2.2,0-4,0.6-5.4,1.9c-1.4,1.3-2,3-2,5v10.7h9.6v3.3H276V107.4z"/>
		<path class="stx" d="M315.8,111.3c-2.6,0-4.8-0.4-6.7-1.3c-1.9-0.9-3.5-2.1-4.8-3.5l2.6-2.3c1.2,1.2,2.5,2.2,3.9,2.9
			c1.4,0.7,3.1,1,5.1,1c1.9,0,3.5-0.3,4.7-1c1.2-0.7,1.8-1.8,1.8-3.2c0-0.6-0.1-1.2-0.4-1.6c-0.2-0.4-0.6-0.8-1-1
			c-0.4-0.3-0.9-0.5-1.4-0.6c-0.5-0.1-1.1-0.3-1.6-0.4l-3.9-0.6c-0.9-0.1-1.8-0.3-2.8-0.5c-1-0.2-1.9-0.6-2.8-1.1
			c-0.8-0.5-1.5-1.2-2.1-2c-0.6-0.8-0.8-1.9-0.8-3.3c0-1.2,0.2-2.3,0.7-3.2s1.2-1.7,2.1-2.3c0.9-0.6,2-1.1,3.2-1.4
			c1.2-0.3,2.5-0.5,4-0.5c2.2,0,4.2,0.4,5.8,1.1c1.6,0.7,3.1,1.7,4.2,2.9l-2.5,2.4c-0.3-0.4-0.6-0.7-1.1-1.1c-0.4-0.4-1-0.7-1.6-1
			c-0.6-0.3-1.4-0.6-2.2-0.7c-0.8-0.2-1.8-0.3-2.9-0.3c-2,0-3.4,0.3-4.5,1c-1,0.7-1.6,1.6-1.6,2.9c0,0.6,0.1,1.2,0.4,1.6
			c0.2,0.4,0.6,0.8,1,1c0.4,0.3,0.9,0.5,1.4,0.6c0.5,0.1,1.1,0.3,1.6,0.4l3.9,0.6c0.9,0.1,1.8,0.3,2.8,0.5c1,0.2,1.9,0.6,2.7,1.1
			c0.8,0.5,1.5,1.2,2.1,2c0.6,0.8,0.8,1.9,0.8,3.3c0,2.5-1,4.4-2.9,5.7C321.5,110.6,318.9,111.3,315.8,111.3z"/>
		<path class="stx" d="M344.7,111.3c-1.8,0-3.4-0.3-4.8-0.9s-2.6-1.5-3.6-2.6c-1-1.1-1.8-2.5-2.3-4.1c-0.5-1.6-0.8-3.4-0.8-5.3
			c0-2,0.3-3.8,0.8-5.4c0.6-1.6,1.3-3,2.3-4.1s2.2-2,3.6-2.6c1.4-0.6,2.9-0.9,4.6-0.9c1.7,0,3.2,0.3,4.5,0.9
			c1.4,0.6,2.5,1.4,3.5,2.5c1,1.1,1.7,2.3,2.2,3.8c0.5,1.5,0.8,3.1,0.8,4.8v1.8h-18.3v1.2c0,1.1,0.2,2.1,0.5,3
			c0.4,0.9,0.9,1.7,1.5,2.4c0.7,0.7,1.5,1.2,2.4,1.6c0.9,0.4,2,0.6,3.1,0.6c1.7,0,3.1-0.4,4.3-1.2c1.2-0.8,2.1-1.8,2.8-3.2l2.8,1.9
			c-0.7,1.7-2,3-3.7,4.1C349.3,110.8,347.2,111.3,344.7,111.3z M344.5,88.5c-1.1,0-2,0.2-2.9,0.6c-0.9,0.4-1.7,0.9-2.3,1.6
			c-0.7,0.7-1.2,1.5-1.5,2.4s-0.6,1.9-0.6,3v0.3h14.2v-0.5c0-1.1-0.2-2.1-0.5-3c-0.3-0.9-0.8-1.7-1.4-2.3c-0.6-0.7-1.3-1.2-2.2-1.5
			C346.4,88.7,345.5,88.5,344.5,88.5z"/>
		<path class="stx" d="M403.9,80.7v30h-4v-30h-11.2v-3.5h26.4v3.5H403.9z"/>
		<path class="stx" d="M420,107.4h7.2V89.3H420V86H431v6.2h0.2c0.5-2,1.5-3.5,2.9-4.6c1.4-1.1,3.2-1.7,5.4-1.7h3.5v3.8h-4.7
			c-2.2,0-4,0.6-5.4,1.9c-1.4,1.3-2,3-2,5v10.7h9.6v3.3H420V107.4z"/>
		<path class="stx" d="M468.8,110.7c-1.5,0-2.6-0.4-3.2-1.2c-0.6-0.8-1-1.7-1.2-2.9h-0.2c-0.5,1.4-1.4,2.6-2.6,3.4
			c-1.2,0.8-2.8,1.2-4.8,1.2c-2.6,0-4.7-0.7-6.2-2c-1.5-1.3-2.3-3.2-2.3-5.5c0-2.3,0.8-4.1,2.5-5.3c1.7-1.2,4.4-1.9,8.1-1.9h5.3
			v-2.4c0-1.8-0.5-3.2-1.5-4.1c-1-0.9-2.5-1.4-4.4-1.4c-1.7,0-3,0.3-4.1,1c-1.1,0.7-1.9,1.5-2.5,2.7l-2.6-1.9
			c0.3-0.6,0.8-1.3,1.3-1.9c0.5-0.6,1.2-1.2,2-1.6c0.8-0.5,1.7-0.8,2.7-1.1c1-0.3,2.2-0.4,3.4-0.4c2.9,0,5.2,0.7,6.9,2.2
			c1.7,1.5,2.6,3.5,2.6,6.2v13.7h3.5v3.3H468.8z M457.4,108.1c1,0,1.9-0.1,2.7-0.4c0.8-0.2,1.5-0.6,2.1-1c0.6-0.4,1.1-0.9,1.4-1.4
			s0.5-1.2,0.5-1.8v-4.1h-5.3c-2.3,0-4,0.3-5,1c-1.1,0.6-1.6,1.6-1.6,2.8v1c0,1.3,0.5,2.2,1.4,2.9
			C454.5,107.8,455.8,108.1,457.4,108.1z"/>
		<path class="stx" d="M478.6,110.7V86h3.8v4h0.2c0.3-0.6,0.6-1.2,1-1.8c0.4-0.6,0.9-1,1.4-1.5c0.6-0.4,1.2-0.8,2-1
			c0.8-0.3,1.7-0.4,2.7-0.4c2.6,0,4.7,0.8,6.2,2.5c1.6,1.6,2.4,4,2.4,7v15.9h-3.8V95.5c0-2.3-0.5-4-1.5-5.1c-1-1.1-2.4-1.7-4.4-1.7
			c-0.8,0-1.5,0.1-2.3,0.3c-0.7,0.2-1.4,0.5-2,0.9c-0.6,0.4-1,0.9-1.4,1.5c-0.4,0.6-0.5,1.3-0.5,2.1v17.2H478.6z"/>
		<path class="stx" d="M517.4,111.3c-2.6,0-4.8-0.4-6.7-1.3c-1.9-0.9-3.5-2.1-4.8-3.5l2.6-2.3c1.2,1.2,2.5,2.2,3.9,2.9
			c1.4,0.7,3.1,1,5.1,1c1.9,0,3.5-0.3,4.7-1c1.2-0.7,1.8-1.8,1.8-3.2c0-0.6-0.1-1.2-0.4-1.6c-0.2-0.4-0.6-0.8-1-1
			c-0.4-0.3-0.9-0.5-1.4-0.6c-0.5-0.1-1.1-0.3-1.6-0.4l-3.9-0.6c-0.9-0.1-1.8-0.3-2.8-0.5c-1-0.2-1.9-0.6-2.8-1.1
			c-0.8-0.5-1.5-1.2-2.1-2c-0.6-0.8-0.8-1.9-0.8-3.3c0-1.2,0.2-2.3,0.7-3.2s1.2-1.7,2.1-2.3c0.9-0.6,2-1.1,3.2-1.4
			c1.2-0.3,2.5-0.5,4-0.5c2.2,0,4.2,0.4,5.8,1.1c1.6,0.7,3.1,1.7,4.2,2.9l-2.5,2.4c-0.3-0.4-0.6-0.7-1.1-1.1c-0.4-0.4-1-0.7-1.6-1
			c-0.6-0.3-1.4-0.6-2.2-0.7c-0.8-0.2-1.8-0.3-2.9-0.3c-2,0-3.4,0.3-4.5,1c-1,0.7-1.6,1.6-1.6,2.9c0,0.6,0.1,1.2,0.4,1.6
			c0.2,0.4,0.6,0.8,1,1c0.4,0.3,0.9,0.5,1.4,0.6c0.5,0.1,1.1,0.3,1.6,0.4l3.9,0.6c0.9,0.1,1.8,0.3,2.8,0.5c1,0.2,1.9,0.6,2.7,1.1
			c0.8,0.5,1.5,1.2,2.1,2c0.6,0.8,0.8,1.9,0.8,3.3c0,2.5-1,4.4-2.9,5.7C523.1,110.6,520.5,111.3,517.4,111.3z"/>
		<path class="stx" d="M536,86h3.8v4h0.2c1.6-3.1,4.1-4.6,7.6-4.6c3,0,5.4,1.1,7.1,3.4c1.7,2.3,2.6,5.5,2.6,9.6
			c0,4.1-0.9,7.3-2.6,9.6c-1.7,2.3-4.1,3.4-7.1,3.4c-3.5,0-6-1.5-7.6-4.6h-0.2v13.6H536V86z M546.2,107.9c2.2,0,4-0.7,5.2-2
			c1.2-1.4,1.8-3.2,1.8-5.4v-4.2c0-2.2-0.6-4-1.8-5.4c-1.2-1.4-3-2-5.2-2c-0.9,0-1.7,0.1-2.4,0.3c-0.8,0.2-1.4,0.6-2,1
			c-0.6,0.4-1,1-1.4,1.6c-0.3,0.6-0.5,1.4-0.5,2.2v8.9c0,0.8,0.2,1.6,0.5,2.2s0.8,1.2,1.4,1.6c0.6,0.4,1.2,0.8,2,1
			C544.5,107.8,545.3,107.9,546.2,107.9z"/>
		<path class="stx" d="M584,110.7c-1.5,0-2.6-0.4-3.2-1.2c-0.6-0.8-1-1.7-1.2-2.9h-0.2c-0.5,1.4-1.4,2.6-2.6,3.4
			c-1.2,0.8-2.8,1.2-4.8,1.2c-2.6,0-4.7-0.7-6.2-2c-1.5-1.3-2.3-3.2-2.3-5.5c0-2.3,0.8-4.1,2.5-5.3c1.7-1.2,4.4-1.9,8.1-1.9h5.3
			v-2.4c0-1.8-0.5-3.2-1.5-4.1c-1-0.9-2.5-1.4-4.4-1.4c-1.7,0-3,0.3-4.1,1c-1.1,0.7-1.9,1.5-2.5,2.7l-2.6-1.9
			c0.3-0.6,0.8-1.3,1.3-1.9c0.5-0.6,1.2-1.2,2-1.6c0.8-0.5,1.7-0.8,2.7-1.1c1-0.3,2.2-0.4,3.4-0.4c2.9,0,5.2,0.7,6.9,2.2
			c1.7,1.5,2.6,3.5,2.6,6.2v13.7h3.5v3.3H584z M572.6,108.1c1,0,1.9-0.1,2.7-0.4c0.8-0.2,1.5-0.6,2.1-1c0.6-0.4,1.1-0.9,1.4-1.4
			s0.5-1.2,0.5-1.8v-4.1h-5.3c-2.3,0-4,0.3-5,1c-1.1,0.6-1.6,1.6-1.6,2.8v1c0,1.3,0.5,2.2,1.4,2.9
			C569.7,107.8,571,108.1,572.6,108.1z"/>
		<path class="stx" d="M592.8,107.4h7.2V89.3h-7.2V86h11.1v6.2h0.2c0.5-2,1.5-3.5,2.9-4.6c1.4-1.1,3.2-1.7,5.4-1.7h3.5v3.8h-4.7
			c-2.2,0-4,0.6-5.4,1.9c-1.4,1.3-2,3-2,5v10.7h9.6v3.3h-20.7V107.4z"/>
		<path class="stx" d="M632.7,111.3c-1.8,0-3.4-0.3-4.8-0.9s-2.6-1.5-3.6-2.6c-1-1.1-1.8-2.5-2.3-4.1c-0.5-1.6-0.8-3.4-0.8-5.3
			c0-2,0.3-3.8,0.8-5.4c0.6-1.6,1.3-3,2.3-4.1s2.2-2,3.6-2.6c1.4-0.6,2.9-0.9,4.6-0.9c1.7,0,3.2,0.3,4.5,0.9
			c1.4,0.6,2.5,1.4,3.5,2.5c1,1.1,1.7,2.3,2.2,3.8c0.5,1.5,0.8,3.1,0.8,4.8v1.8h-18.3v1.2c0,1.1,0.2,2.1,0.5,3
			c0.4,0.9,0.9,1.7,1.5,2.4c0.7,0.7,1.5,1.2,2.4,1.6c0.9,0.4,2,0.6,3.1,0.6c1.7,0,3.1-0.4,4.3-1.2c1.2-0.8,2.1-1.8,2.8-3.2l2.8,1.9
			c-0.7,1.7-2,3-3.7,4.1C637.2,110.8,635.2,111.3,632.7,111.3z M632.5,88.5c-1.1,0-2,0.2-2.9,0.6c-0.9,0.4-1.7,0.9-2.3,1.6
			c-0.7,0.7-1.2,1.5-1.5,2.4s-0.6,1.9-0.6,3v0.3h14.2v-0.5c0-1.1-0.2-2.1-0.5-3c-0.3-0.9-0.8-1.7-1.4-2.3c-0.6-0.7-1.3-1.2-2.2-1.5
			C634.4,88.7,633.5,88.5,632.5,88.5z"/>
		<path class="stx" d="M651.4,110.7V86h3.8v4h0.2c0.3-0.6,0.6-1.2,1-1.8c0.4-0.6,0.9-1,1.4-1.5c0.6-0.4,1.2-0.8,2-1
			c0.8-0.3,1.7-0.4,2.7-0.4c2.6,0,4.7,0.8,6.2,2.5c1.6,1.6,2.4,4,2.4,7v15.9h-3.8V95.5c0-2.3-0.5-4-1.5-5.1c-1-1.1-2.4-1.7-4.4-1.7
			c-0.8,0-1.5,0.1-2.3,0.3c-0.7,0.2-1.4,0.5-2,0.9c-0.6,0.4-1,0.9-1.4,1.5c-0.4,0.6-0.5,1.3-0.5,2.1v17.2H651.4z"/>
		<path class="stx" d="M679.5,110.7V107l16-17.7h-15.5V86h19.6v3.7l-16,17.7h16.5v3.3H679.5z"/>
	</g>
</g>
<g id="Ebene_1">
<g>
	<path class="st0" d="M142.9,50.4l105.7-25.1C189.9-6.1,166.2,20.7,142.9,50.4z"/>
	<path class="st0" d="M14.6,80.9C23.1,85.4,31,89,38.3,91.7l43.8-26.9L14.6,80.9z"/>
	<path class="st0" d="M142.9,50.4L98.3,61C93.3,74.5,88,87.9,78.7,98.3C109,95.5,125.8,72.2,142.9,50.4z"/>
	<path class="st1" d="M101.1,53.2l83.3-51.1C125.4-8.2,112.6,21.3,101.1,53.2z"/>
	<path class="st1" d="M38.3,91.7L0,115.2c42.5,7.4,64.9-1.4,78.7-16.9C67.4,99.4,54.2,97.5,38.3,91.7z"/>
	<path class="st1" d="M101.1,53.2l-19,11.6L98.3,61C99.2,58.4,100.2,55.8,101.1,53.2z"/>
	<path class="st0" d="M82.1,64.8L38.3,91.7c15.8,5.8,29.1,7.7,40.4,6.6C88,87.9,93.3,74.5,98.3,61L82.1,64.8z"/>
	<path class="st2" d="M82.1,64.8L38.3,91.7c15.8,5.8,29.1,7.7,40.4,6.6C88,87.9,93.3,74.5,98.3,61L82.1,64.8z"/>
</g>
</g>
</svg>
